#N canvas 27 -957 1063 773 10;
#X msg 223 437 disconnect;
#X floatatom 171 420 5 0 0 0 - - -;
#X obj 85 -23 hsl 128 15 -128 127 0 0 empty empty Osc::Amplitud -2
-8 0 10 -204786 -1 -1 12700 1;
#X obj 137 11 hsl 128 15 20 2000 0 0 empty empty Osc::Freq -2 -8 0
10 -261234 -1 -1 2200 1;
#X obj 84 399 mrpeach/packOSC;
#X floatatom 134 57 9 0 0 0 - - -;
#X obj 83 492 tgl 15 0 empty empty empty 17 7 0 10 -262144 -1 -1 1
1;
#X msg 224 415 connect 192.168.0.127 8266;
#X obj 83 461 mrpeach/udpsend 0;
#X text 264 405;
#X floatatom 81 19 5 0 0 0 - - -;
#X obj 22 400 print;
#X obj -36 128 s prepack;
#X obj 85 292 r prepack;
#X obj -36 101 pack f f f;
#X text -37 -11 Osc::Index;
#X msg 1 11 1;
#X msg -36 11 0;
#X msg 34 11 2;
#X msg 223 387 connect 192.168.0.113 65044;
#X text 408 386 Debug with packetSender;
#X text 406 417 ESP8266;
#X obj 84 349 t b a b;
#X msg 130 376 [;
#X msg 84 376 ];
#X obj 134 34 int;
#X obj 81 -4 int;
#X obj 40 71 t b b;
#X floatatom 139 85 9 0 0 0 - - -;
#X msg 85 317 /callback \$1 \$2 \$3;
#X connect 0 0 8 0;
#X connect 2 0 26 0;
#X connect 3 0 25 0;
#X connect 4 0 8 0;
#X connect 4 1 1 0;
#X connect 5 0 14 2;
#X connect 5 0 27 0;
#X connect 7 0 8 0;
#X connect 8 0 6 0;
#X connect 10 0 14 1;
#X connect 10 0 27 0;
#X connect 13 0 29 0;
#X connect 14 0 12 0;
#X connect 16 0 14 0;
#X connect 17 0 14 0;
#X connect 18 0 14 0;
#X connect 19 0 8 0;
#X connect 22 0 24 0;
#X connect 22 1 11 0;
#X connect 22 1 4 0;
#X connect 22 2 23 0;
#X connect 23 0 4 0;
#X connect 24 0 4 0;
#X connect 25 0 5 0;
#X connect 26 0 10 0;
#X connect 27 0 14 0;
#X connect 27 1 14 0;
#X connect 28 0 27 0;
#X connect 28 0 14 2;
#X connect 29 0 22 0;
