#N canvas 174 124 1080 599 10;
#X obj 162 305 mrpeach/unpackOSC;
#X obj 193 240 mrpeach/udpreceive 6666;
#X msg 132 267 verbosity \$1;
#X obj 132 241 loadbang;
#X obj -63 386 unpack f f f f f f;
#X obj 332 327 print;
#X msg 193 217 status;
#X floatatom -96 428 6 0 0 0 - - -;
#X floatatom -53 428 6 0 0 0 - - -;
#X floatatom -10 428 6 0 0 0 - - -;
#X floatatom 34 428 6 0 0 0 - - -;
#X floatatom 78 428 6 0 0 0 - - -;
#X floatatom 120 428 6 0 0 0 - - -;
#X obj 207 387 unpack f f f f f f;
#X floatatom 174 429 6 0 0 0 - - -;
#X floatatom 217 429 6 0 0 0 - - -;
#X floatatom 260 429 6 0 0 0 - - -;
#X floatatom 304 429 6 0 0 0 - - -;
#X floatatom 348 429 6 0 0 0 - - -;
#X floatatom 390 429 6 0 0 0 - - -;
#X obj 479 387 unpack f f f f f f;
#X floatatom 446 429 6 0 0 0 - - -;
#X floatatom 489 429 6 0 0 0 - - -;
#X floatatom 532 429 6 0 0 0 - - -;
#X floatatom 576 429 6 0 0 0 - - -;
#X floatatom 620 429 6 0 0 0 - - -;
#X floatatom 662 429 6 0 0 0 - - -;
#X obj 132 353 mrpeach/routeOSC /0 /30 /99;
#X floatatom 127 115 3 0 0 0 - - -;
#X floatatom 154 115 3 0 0 0 - - -;
#X floatatom 181 115 3 0 0 0 - - -;
#X floatatom 208 115 3 0 0 0 - - -;
#X floatatom 235 116 5 0 0 0 - - -;
#X obj 127 89 unpack 0 0 0 0 0;
#X msg -103 -50 status;
#X floatatom 6 36 9 0 0 0 - - -;
#X obj 187 62 tgl 15 0 empty empty empty 17 7 0 10 -4034 -1 -1 0 1
;
#X floatatom 66 62 9 0 0 0 - - -;
#X text 84 114 from:;
#X obj 6 3 route received total from multicast;
#X text 35 -70;
#X text -11 -62;
#X obj -103 -24 udpreceive 32000;
#X obj -103 3 mrpeach/unpackOSC;
#X obj -103 28 print;
#X msg 434 156 disconnect;
#X floatatom 522 156 5 0 0 0 - - -;
#X obj 435 115 mrpeach/packOSC;
#X obj 434 208 tgl 15 0 empty empty empty 17 7 0 10 -262144 -1 -1 1
1;
#X obj 434 177 mrpeach/udpsend 0;
#X obj 435 65 t b a b;
#X msg 481 92 [;
#X msg 435 92 ];
#X msg 436 -2 100 1000 100 1100 100 1200 0 0 0 0 0 0 0 0 0 0 0 0;
#X msg 436 29 /callback \$1 \$2 \$3 \$4 \$5 \$6 \$7 \$8 \$9 \$10 \$11
\$12 \$13 \$14 \$15 \$16 \$17 \$18;
#X obj 436 -28 bng 15 250 50 0 empty empty empty 17 7 0 10 -262144
-1 -1;
#X text 475 106;
#X text 209 287;
#X msg 435 135 connect 192.168.22.3 12000;
#X obj 613 92 bng 15 250 50 0 empty empty empty 17 7 0 10 -262144 -1
-1;
#X obj 623 124 bng 15 250 50 0 empty empty empty 17 7 0 10 -262144
-1 -1;
#X connect 0 0 27 0;
#X connect 0 0 5 0;
#X connect 1 0 0 0;
#X connect 2 0 27 0;
#X connect 3 0 2 0;
#X connect 4 0 7 0;
#X connect 4 1 8 0;
#X connect 4 2 9 0;
#X connect 4 3 10 0;
#X connect 4 4 11 0;
#X connect 4 5 12 0;
#X connect 6 0 1 0;
#X connect 13 0 14 0;
#X connect 13 1 15 0;
#X connect 13 2 16 0;
#X connect 13 3 17 0;
#X connect 13 4 18 0;
#X connect 13 5 19 0;
#X connect 20 0 21 0;
#X connect 20 1 22 0;
#X connect 20 2 23 0;
#X connect 20 3 24 0;
#X connect 20 4 25 0;
#X connect 20 5 26 0;
#X connect 27 0 4 0;
#X connect 27 1 13 0;
#X connect 27 2 20 0;
#X connect 33 0 28 0;
#X connect 33 1 29 0;
#X connect 33 2 30 0;
#X connect 33 3 31 0;
#X connect 33 4 32 0;
#X connect 34 0 42 0;
#X connect 39 0 35 0;
#X connect 39 1 37 0;
#X connect 39 2 33 0;
#X connect 39 3 36 0;
#X connect 42 0 43 0;
#X connect 42 1 39 0;
#X connect 43 0 44 0;
#X connect 45 0 49 0;
#X connect 47 0 49 0;
#X connect 47 1 46 0;
#X connect 49 0 48 0;
#X connect 50 0 52 0;
#X connect 50 1 47 0;
#X connect 50 2 51 0;
#X connect 51 0 47 0;
#X connect 52 0 47 0;
#X connect 53 0 54 0;
#X connect 54 0 50 0;
#X connect 55 0 53 0;
#X connect 58 0 49 0;
#X connect 59 0 58 0;
#X connect 60 0 45 0;
