#N canvas 0 23 1276 755 10;
#X obj 396 193 mrpeach/unpackOSC;
#X obj 535 104 mrpeach/udpreceive 6666;
#X text 443 175 comment;
#X msg 366 155 verbosity \$1;
#X obj 366 129 loadbang;
#X obj 172 360 unpack f f f f f f;
#X obj 396 218 print;
#X msg 535 81 status;
#X floatatom 139 402 6 0 0 0 - - -;
#X floatatom 182 402 6 0 0 0 - - -;
#X floatatom 225 402 6 0 0 0 - - -;
#X floatatom 269 402 6 0 0 0 - - -;
#X floatatom 313 402 6 0 0 0 - - -;
#X floatatom 355 402 6 0 0 0 - - -;
#X obj 442 361 unpack f f f f f f;
#X floatatom 409 403 6 0 0 0 - - -;
#X floatatom 452 403 6 0 0 0 - - -;
#X floatatom 495 403 6 0 0 0 - - -;
#X floatatom 539 403 6 0 0 0 - - -;
#X floatatom 583 403 6 0 0 0 - - -;
#X floatatom 625 403 6 0 0 0 - - -;
#X obj 714 361 unpack f f f f f f;
#X floatatom 681 403 6 0 0 0 - - -;
#X floatatom 724 403 6 0 0 0 - - -;
#X floatatom 767 403 6 0 0 0 - - -;
#X floatatom 811 403 6 0 0 0 - - -;
#X floatatom 855 403 6 0 0 0 - - -;
#X floatatom 897 403 6 0 0 0 - - -;
#X obj 366 241 mrpeach/routeOSC /0 /30 /99;
#X connect 0 0 6 0;
#X connect 0 0 28 0;
#X connect 1 0 0 0;
#X connect 3 0 28 0;
#X connect 4 0 3 0;
#X connect 5 0 8 0;
#X connect 5 1 9 0;
#X connect 5 2 10 0;
#X connect 5 3 11 0;
#X connect 5 4 12 0;
#X connect 5 5 13 0;
#X connect 7 0 1 0;
#X connect 14 0 15 0;
#X connect 14 1 16 0;
#X connect 14 2 17 0;
#X connect 14 3 18 0;
#X connect 14 4 19 0;
#X connect 14 5 20 0;
#X connect 21 0 22 0;
#X connect 21 1 23 0;
#X connect 21 2 24 0;
#X connect 21 3 25 0;
#X connect 21 4 26 0;
#X connect 21 5 27 0;
#X connect 28 0 5 0;
#X connect 28 1 14 0;
#X connect 28 2 21 0;
