#N canvas 439 122 650 438 10;
#X obj 105 108 * 127;
#X obj 122 129 * 127;
#X obj 105 72 unpack f f f f f f f f f;
#X obj 297 92 r volset;
#X obj 106 248 pack f f f f f f f f f;
#X obj 140 108 * 127;
#X obj 157 129 * 127;
#X obj 175 109 * 127;
#X obj 193 133 * 127;
#X obj 210 110 * 127;
#X obj 227 129 * 127;
#X obj 246 111 * 127;
#X obj 105 158 abs;
#X obj 122 187 abs;
#X obj 140 155 abs;
#X obj 157 183 abs;
#X obj 175 160 abs;
#X obj 193 184 abs;
#X obj 210 157 abs;
#X obj 227 185 abs;
#X obj 246 159 abs;
#X obj 105 206 int;
#X obj 122 224 int;
#X obj 140 207 int;
#X obj 157 228 int;
#X obj 175 207 int;
#X obj 193 221 int;
#X obj 210 207 int;
#X obj 229 228 int;
#X obj 248 206 int;
#X obj 106 312 outlet;
#X obj 105 42 inlet;
#X obj 187 286 spigot;
#X obj 187 416 outlet;
#X obj 232 271 tgl 15 0 empty init init 17 7 0 10 -262144 -1 -1 0 1
;
#X obj 106 290 spigot;
#X obj 35 275 tgl 15 0 empty initout initout 17 7 0 10 -262144 -1 -1
1 1;
#X msg 187 311 \$1 980 \$2 1080 \$3 880 \$4 950 \$5 1050 \$6 850 \$7
900 \$8 1000 \$9 800;
#X obj 228 361 spigot;
#X obj 273 347 tgl 15 0 empty empty empty 17 7 0 10 -262144 -1 -1 0
1;
#X msg 228 386 \$1 1080 \$2 1180 \$3 880 \$4 950 \$5 1050 \$6 850 \$7
900 \$8 1000 \$9 800;
#X connect 0 0 12 0;
#X connect 1 0 13 0;
#X connect 2 0 0 0;
#X connect 2 1 1 0;
#X connect 2 2 5 0;
#X connect 2 3 6 0;
#X connect 2 4 7 0;
#X connect 2 5 8 0;
#X connect 2 6 9 0;
#X connect 2 7 10 0;
#X connect 2 8 11 0;
#X connect 3 0 0 1;
#X connect 3 0 11 1;
#X connect 3 0 9 1;
#X connect 3 0 8 1;
#X connect 3 0 7 1;
#X connect 3 0 6 1;
#X connect 3 0 5 1;
#X connect 3 0 1 1;
#X connect 4 0 32 0;
#X connect 4 0 35 0;
#X connect 4 0 38 0;
#X connect 5 0 14 0;
#X connect 6 0 15 0;
#X connect 7 0 16 0;
#X connect 8 0 17 0;
#X connect 9 0 18 0;
#X connect 10 0 19 0;
#X connect 11 0 20 0;
#X connect 12 0 21 0;
#X connect 13 0 22 0;
#X connect 14 0 23 0;
#X connect 15 0 24 0;
#X connect 16 0 25 0;
#X connect 17 0 26 0;
#X connect 18 0 27 0;
#X connect 19 0 28 0;
#X connect 20 0 29 0;
#X connect 21 0 4 0;
#X connect 22 0 4 1;
#X connect 23 0 4 2;
#X connect 24 0 4 3;
#X connect 25 0 4 4;
#X connect 26 0 4 5;
#X connect 27 0 4 6;
#X connect 28 0 4 7;
#X connect 29 0 4 8;
#X connect 31 0 2 0;
#X connect 32 0 37 0;
#X connect 34 0 32 1;
#X connect 35 0 30 0;
#X connect 36 0 35 1;
#X connect 37 0 33 0;
#X connect 38 0 40 0;
#X connect 39 0 38 1;
#X connect 40 0 33 0;
