#N canvas 321 23 1063 703 10;
#X msg 184 162 disconnect;
#X floatatom 132 145 5 0 0 0 - - -;
#X obj 50 -7 hsl 128 15 -1 1 0 0 empty empty empty -2 -8 0 10 -261682
-1 -1 2900 1;
#X obj 45 124 mrpeach/packOSC;
#X obj 44 217 tgl 15 0 empty empty empty 17 7 0 10 -262144 -1 -1 1
1;
#X obj 44 186 mrpeach/udpsend 0;
#X obj -17 125 print;
#X obj 45 74 t b a b;
#X msg 91 101 [;
#X msg 45 101 ];
#X obj 46 12 float;
#X msg 46 42 /neighbor \$1;
#X text 225 130;
#X msg 185 35 connect 192.168.0.11 8266;
#X msg 185 59 connect 192.168.0.12 8266;
#X msg 184 89 connect 192.168.0.13 8266;
#X msg 184 113 connect 192.168.0.14 8266;
#X msg 185 140 connect 192.168.0.15 8266;
#X connect 0 0 5 0;
#X connect 2 0 10 0;
#X connect 3 0 5 0;
#X connect 3 1 1 0;
#X connect 5 0 4 0;
#X connect 7 0 9 0;
#X connect 7 1 6 0;
#X connect 7 1 3 0;
#X connect 7 2 8 0;
#X connect 8 0 3 0;
#X connect 9 0 3 0;
#X connect 10 0 11 0;
#X connect 11 0 7 0;
#X connect 13 0 5 0;
#X connect 14 0 5 0;
#X connect 15 0 5 0;
#X connect 16 0 5 0;
#X connect 17 0 5 0;
