#N canvas 43 23 1276 755 10;
#X msg 414 366 disconnect;
#X floatatom 362 349 5 0 0 0 - - -;
#X obj 112 14 hsl 128 15 0 127 0 0 empty empty Osc0::Amplitud -2 -8
0 10 -204786 -1 -1 6100 1;
#X obj 164 48 hsl 128 15 20 2000 0 0 empty empty Osc0::Freq -2 -8 0
10 -261234 -1 -1 10500 1;
#X obj 275 328 mrpeach/packOSC;
#X floatatom 161 94 9 0 0 0 - - -;
#X obj 274 421 tgl 15 0 empty empty empty 17 7 0 10 -262144 -1 -1 1
1;
#X obj 274 390 mrpeach/udpsend 0;
#X floatatom 108 56 5 0 0 0 - - -;
#X obj 213 329 print;
#X msg 414 316 connect 192.168.0.113 65044;
#X text 592 314 Debug with packetSender;
#X text 590 345 ESP8266;
#X obj 275 278 t b a b;
#X msg 321 305 [;
#X msg 275 305 ];
#X obj 161 71 int;
#X obj 108 33 int;
#X obj 276 173 t b b;
#X msg 276 246 /callback \$1 \$2 \$3 \$4 \$5 \$6;
#X obj 319 11 hsl 128 15 0 127 0 0 empty empty Osc1::Amplitud -2 -8
0 10 -204786 -1 -1 6200 1;
#X obj 371 46 hsl 128 15 20 2000 0 0 empty empty Osc1::Freq -2 -8 0
10 -261234 -1 -1 3900 1;
#X floatatom 368 91 9 0 0 0 - - -;
#X floatatom 315 53 5 0 0 0 - - -;
#X obj 368 68 int;
#X obj 315 30 int;
#X obj 536 9 hsl 128 15 0 127 0 0 empty empty Osc2::Amplitud -2 -8
0 10 -204786 -1 -1 9400 1;
#X obj 588 44 hsl 128 15 20 2000 0 0 empty empty Osc2::Freq -2 -8 0
10 -261234 -1 -1 4200 1;
#X floatatom 585 90 9 0 0 0 - - -;
#X floatatom 532 52 5 0 0 0 - - -;
#X obj 585 67 int;
#X obj 532 29 int;
#X obj 276 204 pack f f f f f f;
#X obj 474 477 tgl 15 0 empty empty empty 17 7 0 10 -262144 -1 -1 0
1;
#X obj 474 446 mrpeach/udpsend 0;
#X msg 536 402 connect 192.168.0.101 6666;
#X floatatom 475 414 9 0 0 0 - - -;
#X floatatom 991 476 3 0 0 0 - - -;
#X floatatom 1018 476 3 0 0 0 - - -;
#X floatatom 1045 476 3 0 0 0 - - -;
#X floatatom 1072 476 3 0 0 0 - - -;
#X floatatom 1099 477 5 0 0 0 - - -;
#X obj 991 450 unpack 0 0 0 0 0;
#X msg 768 262 status;
#X floatatom 870 397 9 0 0 0 - - -;
#X obj 1051 423 tgl 15 0 empty empty empty 17 7 0 10 -4034 -1 -1 0
1;
#X floatatom 930 423 9 0 0 0 - - -;
#X text 567 262 get status on right outlet:;
#X text 763 397 bytes received:;
#X text 778 421 total bytes received:;
#X text 948 475 from:;
#X text 870 250 Specify a multicast address (from 224.0.0.0 to 239.255.255.255)
to use multicasting;
#X text 613 210 Creation arguments: port number to listen on (required)
;
#X obj 768 466 spigot;
#X obj 807 446 tgl 15 0 empty empty enable_print: -77 8 0 10 -4034
-1 -1 0 1;
#X obj 768 491 print received;
#X obj 870 364 route received total from multicast;
#X text 752 228 IP address to listen on (optional);
#X text 853 299 change port to listen on;
#X text 1063 532 Martin Peach 2010/10/15;
#X text 565 175 [udpreceive] receives datagrams over a udp connection
and outputs them as raw bytes.;
#N canvas 529 53 494 344 META 0;
#X text 12 155 HELP_PATCH_AUTHORS "pd meta" information added by Jonathan
Wilkes for Pd version 0.42.;
#X text 12 25 LICENSE GPL v2 or later;
#X text 12 135 AUTHOR Martin Peach;
#X text 12 5 KEYWORDS control network;
#X text 12 45 DESCRIPTION receive datagrams over a udp connection and
outputs them as raw bytes;
#X text 12 75 INLET_0 status port;
#X text 12 95 OUTLET_0 anything;
#X text 12 115 OUTLET_1 received total from multicast;
#X restore 1234 568 pd META;
#X obj 514 377 bng 15 250 50 0 empty empty empty 17 7 0 10 -262144
-1 -1;
#X obj 789 379 mrpeach/unpackOSC;
#X obj 768 332 mrpeach/udpreceive 6666;
#X text 455 334 comment;
#X msg 415 344 connect 192.168.0.66 8266;
#X text 676 403;
#X connect 0 0 7 0;
#X connect 0 0 34 0;
#X connect 2 0 17 0;
#X connect 3 0 16 0;
#X connect 4 0 7 0;
#X connect 4 0 34 0;
#X connect 4 1 1 0;
#X connect 5 0 18 0;
#X connect 5 0 32 1;
#X connect 7 0 6 0;
#X connect 8 0 18 0;
#X connect 8 0 32 0;
#X connect 10 0 7 0;
#X connect 13 0 15 0;
#X connect 13 1 9 0;
#X connect 13 1 4 0;
#X connect 13 2 14 0;
#X connect 14 0 4 0;
#X connect 15 0 4 0;
#X connect 16 0 5 0;
#X connect 17 0 8 0;
#X connect 18 0 32 0;
#X connect 18 1 32 0;
#X connect 19 0 13 0;
#X connect 20 0 25 0;
#X connect 21 0 24 0;
#X connect 22 0 32 3;
#X connect 22 0 18 0;
#X connect 23 0 32 2;
#X connect 23 0 18 0;
#X connect 24 0 22 0;
#X connect 25 0 23 0;
#X connect 26 0 31 0;
#X connect 27 0 30 0;
#X connect 28 0 32 5;
#X connect 28 0 18 0;
#X connect 29 0 32 4;
#X connect 29 0 18 0;
#X connect 30 0 28 0;
#X connect 31 0 29 0;
#X connect 32 0 19 0;
#X connect 34 0 33 0;
#X connect 35 0 34 0;
#X connect 36 0 34 0;
#X connect 42 0 37 0;
#X connect 42 1 38 0;
#X connect 42 2 39 0;
#X connect 42 3 40 0;
#X connect 42 4 41 0;
#X connect 43 0 64 0;
#X connect 53 0 55 0;
#X connect 54 0 53 1;
#X connect 56 0 44 0;
#X connect 56 1 46 0;
#X connect 56 2 42 0;
#X connect 56 3 45 0;
#X connect 62 0 36 0;
#X connect 63 0 53 0;
#X connect 64 0 53 0;
#X connect 64 0 63 0;
#X connect 64 1 56 0;
#X connect 66 0 7 0;
