#N canvas 200 23 1098 754 10;
#X obj 522 371 mrpeach/packOSC;
#X obj 522 417 tgl 15 0 empty empty empty 17 7 0 10 -262144 -1 -1 1
1;
#X obj 522 396 mrpeach/udpsend 0;
#X obj 478 371 print;
#X obj 244 -89 bng 15 250 50 0 empty empty empty 17 7 0 10 -262144
-1 -1;
#X floatatom 244 -68 5 0 0 0 - - -;
#X obj 241 80 bng 15 250 50 0 empty empty empty 17 7 0 10 -262144 -1
-1;
#X floatatom 241 102 5 0 0 0 - - -;
#X obj 244 -3 bng 15 250 50 0 empty empty empty 17 7 0 10 -262144 -1
-1;
#X floatatom 244 18 5 0 0 0 - - -;
#X obj 522 347 r osc;
#X msg 651 328 disconnect;
#X msg 244 40 sendtyped /param/W f \$1;
#X msg 244 -45 sendtyped /param/K f \$1;
#X msg 241 123 sendtyped /param/DT f \$1;
#X obj 241 144 s osc;
#X obj 244 60 s osc;
#X obj 244 -24 s osc;
#X obj 447 112 s osc;
#X obj 447 33 s osc;
#X obj 10 -91 bng 15 250 50 0 empty empty empty 17 7 0 10 -262144 -1
-1;
#X floatatom 10 -70 5 0 0 0 - - -;
#X obj 10 -26 s osc;
#X obj 9 -3 bng 15 250 50 0 empty empty empty 17 7 0 10 -262144 -1
-1;
#X floatatom 9 18 5 0 0 0 - - -;
#X obj 9 63 s osc;
#X msg 10 -47 sendtyped /oscillator/freq f \$1;
#X msg 9 42 sendtyped /oscillator/amp f \$1;
#X obj 10 88 bng 15 250 50 0 empty empty empty 17 7 0 10 -262144 -1
-1;
#X obj 10 152 s osc;
#X msg 10 131 sendtyped /current_val f \$1;
#X obj 9 179 bng 15 250 50 0 empty empty empty 17 7 0 10 -262144 -1
-1;
#X floatatom 9 200 5 0 0 0 - - -;
#X obj 9 243 s osc;
#X msg 9 222 sendtyped /neighbor f \$1;
#X obj 446 -11 tgl 15 0 empty empty empty 17 7 0 10 -262144 -1 -1 0
1;
#X obj 446 -39 s osc;
#X obj 446 -88 tgl 15 0 empty empty empty 17 7 0 10 -262144 -1 -1 1
1;
#X msg 446 -62 sendtyped /DEBUG i \$1;
#X msg 446 10 sendtyped /MONITOR i \$1;
#X obj 8 334 s osc;
#X obj 8 271 tgl 15 0 empty empty empty 17 7 0 10 -262144 -1 -1 0 1
;
#X obj 9 289 float;
#X floatatom 10 111 5 0 0 0 - - -;
#X msg 447 89 sendtyped /show_neighs i 0;
#X obj 446 63 bng 15 250 50 0 empty empty empty 17 7 0 10 -262144 -1
-1;
#X obj 787 375 mrpeach/packOSC;
#X obj 787 421 tgl 15 0 empty empty empty 17 7 0 10 -262144 -1 -1 0
1;
#X obj 787 400 mrpeach/udpsend 0;
#X obj 743 375 print;
#X obj 789 351 r osc;
#X msg 918 332 disconnect;
#X obj 525 518 mrpeach/packOSC;
#X obj 525 565 tgl 15 0 empty empty empty 17 7 0 10 -262144 -1 -1 0
1;
#X obj 525 543 mrpeach/udpsend 0;
#X obj 481 518 print;
#X obj 525 492 r osc;
#X msg 654 475 disconnect;
#X text 228 30 comment;
#X text 402 130 comment;
#X obj 522 225 mrpeach/packOSC;
#X obj 522 281 tgl 15 0 empty empty empty 17 7 0 10 -262144 -1 -1 0
1;
#X obj 522 250 mrpeach/udpsend 0;
#X obj 478 225 print;
#X msg 563 201 connect 192.168.0.11 8266;
#X obj 522 201 r osc;
#X msg 652 181 disconnect;
#X msg 561 347 connect 192.168.0.12 8266;
#X msg 564 494 connect 192.168.0.14 8266;
#X obj 786 524 mrpeach/packOSC;
#X obj 786 580 tgl 15 0 empty empty empty 17 7 0 10 -262144 -1 -1 0
1;
#X obj 786 549 mrpeach/udpsend 0;
#X obj 742 524 print;
#X obj 786 501 r osc;
#X msg 916 482 disconnect;
#X msg 826 502 connect 192.168.0.15 8266;
#X obj 787 228 mrpeach/packOSC;
#X obj 787 284 tgl 15 0 empty empty empty 17 7 0 10 -262144 -1 -1 0
1;
#X obj 787 253 mrpeach/udpsend 0;
#X obj 743 228 print;
#X obj 787 208 r osc;
#X msg 916 188 disconnect;
#X msg 826 207 connect 192.168.0.10 8266;
#X msg 828 352 connect 192.168.0.13 8266;
#X obj 651 161 r d;
#X obj 741 -10 s d;
#X obj 916 166 r d;
#X obj 651 305 r d;
#X obj 918 309 r d;
#X obj 654 453 r d;
#X obj 916 459 r d;
#X obj 741 -30 bng 15 250 50 0 empty empty empty 17 7 0 10 -262144
-1 -1;
#X obj 781 -31 bng 15 250 50 0 empty empty empty 17 7 0 10 -262144
-1 -1;
#X obj 781 -9 s c;
#X obj 826 186 r c;
#X obj 563 180 r c;
#X obj 561 325 r c;
#X obj 828 331 r c;
#X obj 826 482 r c;
#X obj 564 474 r c;
#X msg 10 312 sendtyped /neighbor_weight if 10 \$1;
#X obj 50 398 s osc;
#X obj 50 336 tgl 15 0 empty empty empty 17 7 0 10 -262144 -1 -1 0
1;
#X obj 51 353 float;
#X obj 100 463 s osc;
#X obj 100 401 tgl 15 0 empty empty empty 17 7 0 10 -262144 -1 -1 0
1;
#X obj 101 418 float;
#X obj 15 506 s osc;
#X obj 15 444 tgl 15 0 empty empty empty 17 7 0 10 -262144 -1 -1 0
1;
#X obj 16 461 float;
#X obj 62 569 s osc;
#X obj 62 507 tgl 15 0 empty empty empty 17 7 0 10 -262144 -1 -1 0
1;
#X obj 63 524 float;
#X msg 51 377 sendtyped /neighbor_weight if 11 \$1;
#X msg 101 440 sendtyped /neighbor_weight if 12 \$1;
#X msg 16 485 sendtyped /neighbor_weight if 13 \$1;
#X msg 63 548 sendtyped /neighbor_weight_idx if 14 \$1;
#X obj 105 631 s osc;
#X obj 104 569 tgl 15 0 empty empty empty 17 7 0 10 -262144 -1 -1 0
1;
#X obj 105 586 float;
#X msg 105 610 sendtyped /neighbor_weight_idx if 14 \$1;
#X connect 0 0 2 0;
#X connect 2 0 1 0;
#X connect 4 0 5 0;
#X connect 5 0 13 0;
#X connect 6 0 7 0;
#X connect 7 0 14 0;
#X connect 8 0 9 0;
#X connect 9 0 12 0;
#X connect 10 0 3 0;
#X connect 10 0 0 0;
#X connect 11 0 2 0;
#X connect 12 0 16 0;
#X connect 13 0 17 0;
#X connect 14 0 15 0;
#X connect 20 0 21 0;
#X connect 21 0 26 0;
#X connect 23 0 24 0;
#X connect 24 0 27 0;
#X connect 26 0 22 0;
#X connect 27 0 25 0;
#X connect 28 0 43 0;
#X connect 30 0 29 0;
#X connect 31 0 32 0;
#X connect 32 0 34 0;
#X connect 34 0 33 0;
#X connect 35 0 39 0;
#X connect 37 0 38 0;
#X connect 38 0 36 0;
#X connect 39 0 19 0;
#X connect 41 0 42 0;
#X connect 42 0 100 0;
#X connect 43 0 30 0;
#X connect 44 0 18 0;
#X connect 45 0 44 0;
#X connect 46 0 48 0;
#X connect 48 0 47 0;
#X connect 50 0 49 0;
#X connect 50 0 46 0;
#X connect 51 0 48 0;
#X connect 52 0 54 0;
#X connect 54 0 53 0;
#X connect 56 0 55 0;
#X connect 56 0 52 0;
#X connect 57 0 54 0;
#X connect 60 0 62 0;
#X connect 62 0 61 0;
#X connect 64 0 62 0;
#X connect 65 0 63 0;
#X connect 65 0 60 0;
#X connect 66 0 62 0;
#X connect 67 0 2 0;
#X connect 68 0 54 0;
#X connect 69 0 71 0;
#X connect 71 0 70 0;
#X connect 73 0 72 0;
#X connect 73 0 69 0;
#X connect 74 0 71 0;
#X connect 75 0 71 0;
#X connect 76 0 78 0;
#X connect 78 0 77 0;
#X connect 80 0 79 0;
#X connect 80 0 76 0;
#X connect 81 0 78 0;
#X connect 82 0 78 0;
#X connect 83 0 48 0;
#X connect 84 0 66 0;
#X connect 86 0 81 0;
#X connect 87 0 11 0;
#X connect 88 0 51 0;
#X connect 89 0 57 0;
#X connect 90 0 74 0;
#X connect 91 0 85 0;
#X connect 92 0 93 0;
#X connect 94 0 82 0;
#X connect 95 0 64 0;
#X connect 96 0 67 0;
#X connect 97 0 83 0;
#X connect 98 0 75 0;
#X connect 99 0 68 0;
#X connect 100 0 40 0;
#X connect 102 0 103 0;
#X connect 103 0 113 0;
#X connect 105 0 106 0;
#X connect 106 0 114 0;
#X connect 108 0 109 0;
#X connect 109 0 115 0;
#X connect 111 0 112 0;
#X connect 112 0 116 0;
#X connect 113 0 101 0;
#X connect 114 0 104 0;
#X connect 115 0 107 0;
#X connect 116 0 110 0;
#X connect 118 0 119 0;
#X connect 119 0 120 0;
#X connect 120 0 117 0;
