#N canvas -278 -964 1063 773 10;
#X msg 414 366 disconnect;
#X floatatom 362 349 5 0 0 0 - - -;
#X obj 112 14 hsl 128 15 0 127 0 0 empty empty Osc0::Amplitud -2 -8
0 10 -204786 -1 -1 0 1;
#X obj 164 48 hsl 128 15 20 2000 0 0 empty empty Osc0::Freq -2 -8 0
10 -261234 -1 -1 0 1;
#X obj 275 328 mrpeach/packOSC;
#X floatatom 161 94 9 0 0 0 - - -;
#X obj 274 421 tgl 15 0 empty empty empty 17 7 0 10 -262144 -1 -1 0
1;
#X msg 415 344 connect 192.168.0.127 8266;
#X obj 274 390 mrpeach/udpsend 0;
#X floatatom 108 56 5 0 0 0 - - -;
#X obj 213 329 print;
#X msg 414 316 connect 192.168.0.113 65044;
#X text 592 314 Debug with packetSender;
#X text 590 345 ESP8266;
#X obj 275 278 t b a b;
#X msg 321 305 [;
#X msg 275 305 ];
#X obj 161 71 int;
#X obj 108 33 int;
#X obj 384 163 t b b;
#X text 455 334 comment;
#X msg 276 246 /callback \$1 \$2 \$3 \$4 \$5 \$6;
#X obj 319 11 hsl 128 15 0 127 0 0 empty empty Osc1::Amplitud -2 -8
0 10 -204786 -1 -1 0 1;
#X obj 371 46 hsl 128 15 20 2000 0 0 empty empty Osc1::Freq -2 -8 0
10 -261234 -1 -1 0 1;
#X floatatom 368 91 9 0 0 0 - - -;
#X floatatom 315 53 5 0 0 0 - - -;
#X obj 368 68 int;
#X obj 315 30 int;
#X obj 536 9 hsl 128 15 0 127 0 0 empty empty Osc2::Amplitud -2 -8
0 10 -204786 -1 -1 0 1;
#X obj 588 44 hsl 128 15 20 2000 0 0 empty empty Osc2::Freq -2 -8 0
10 -261234 -1 -1 0 1;
#X floatatom 585 90 9 0 0 0 - - -;
#X floatatom 532 52 5 0 0 0 - - -;
#X obj 585 67 int;
#X obj 532 29 int;
#X obj 276 204 pack f f f f f f;
#X connect 0 0 8 0;
#X connect 2 0 18 0;
#X connect 3 0 17 0;
#X connect 4 0 8 0;
#X connect 4 1 1 0;
#X connect 5 0 19 0;
#X connect 5 0 34 1;
#X connect 7 0 8 0;
#X connect 8 0 6 0;
#X connect 9 0 19 0;
#X connect 9 0 34 0;
#X connect 11 0 8 0;
#X connect 14 0 16 0;
#X connect 14 1 10 0;
#X connect 14 1 4 0;
#X connect 14 2 15 0;
#X connect 15 0 4 0;
#X connect 16 0 4 0;
#X connect 17 0 5 0;
#X connect 18 0 9 0;
#X connect 19 0 34 0;
#X connect 19 1 34 0;
#X connect 21 0 14 0;
#X connect 22 0 27 0;
#X connect 23 0 26 0;
#X connect 24 0 34 3;
#X connect 25 0 34 2;
#X connect 26 0 24 0;
#X connect 27 0 25 0;
#X connect 28 0 33 0;
#X connect 29 0 32 0;
#X connect 30 0 34 5;
#X connect 31 0 34 4;
#X connect 32 0 30 0;
#X connect 33 0 31 0;
#X connect 34 0 21 0;
