#N canvas 548 -1057 960 536 10;
#X msg 555 233 disconnect;
#X floatatom 286 227 5 0 0 0 - - -;
#X obj 226 146 t b a b;
#X msg 272 173 [;
#X msg 226 173 ];
#X obj 412 -7 hsl 128 15 0 1023 0 0 D5 empty D5 -2 -8 0 10 -262144
-1 -1 0 1;
#X msg 427 118 /motor 14 \$1;
#X obj 427 98 int;
#X obj 199 -45 hsl 128 15 0 1023 0 0 D2 empty D2 -2 -8 0 10 -262144
-1 -1 0 1;
#X obj 395 -45 hsl 128 15 0 1023 0 0 D4 empty D4 -2 -8 0 10 -262144
-1 -1 0 1;
#X obj 185 97 int;
#X obj 350 98 int;
#X obj 55 -13 hsl 128 15 0 1023 0 0 D1 empty D1 -2 -8 0 10 -262144
-1 -1 0 1;
#X obj 108 97 int;
#X obj 18 -47 hsl 128 15 0 1023 0 0 D0 empty D0 -2 -8 0 10 -262144
-1 -1 4600 1;
#X obj 25 97 int;
#X obj 578 -40 hsl 128 15 0 1023 0 0 D6 empty D6 -2 -8 0 10 -262144
-1 -1 0 1;
#X obj 596 -11 hsl 128 15 0 1023 0 0 D7 empty D7 -2 -8 0 10 -262144
-1 -1 0 1;
#X obj 513 99 int;
#X obj 598 97 int;
#X msg 185 118 /motor 4 \$1;
#X msg 350 118 /motor 2 \$1;
#X msg 108 118 /motor 5 \$1;
#X msg 25 118 /motor 16 \$1;
#X msg 513 118 /motor 12 \$1;
#X msg 598 118 /motor 13 \$1;
#X text 427 209 Light TESTER;
#X obj 225 -11 hsl 128 15 0 1023 0 0 D3 empty D3 -2 -8 0 10 -262144
-1 -1 0 1;
#X msg 272 118 /motor 0 \$1;
#X obj 272 99 int;
#X obj 750 -41 hsl 128 15 0 1023 0 0 D8 empty D8 -2 -8 0 10 -262144
-1 -1 0 1;
#X obj 681 97 int;
#X msg 681 118 /motor 15 \$1;
#X text 663 84 comment;
#X obj 25 78 r D0;
#X obj 108 78 r D1;
#X obj 185 78 r D2;
#X obj 272 80 r D3;
#X obj 350 76 r D4;
#X obj 427 79 r D5;
#X obj 513 80 r D6;
#X obj 598 76 r D7;
#X obj 681 77 r D8;
#X obj 247 203 mrpeach/packOSC;
#X obj 247 250 mrpeach/udpsend 8266;
#N canvas 192 219 1132 415 control 0;
#X obj 219 264 hsl 128 15 0 1023 0 0 D2 empty D2 -2 -8 0 10 -262144
-1 -1 3300 1;
#X obj 65 264 hsl 128 15 0 1023 0 0 D1 empty D1 -2 -8 0 10 -262144
-1 -1 3000 1;
#X msg 95 212 0;
#X msg 62 212 \$1;
#X obj 62 185 t f b;
#X obj 183 185 t b f;
#X msg 216 212 \$1;
#X msg 183 212 0;
#X msg 62 132 620;
#X msg 183 143 620;
#X msg 26 132 0;
#X obj 569 266 hsl 128 15 0 1023 0 0 D4 empty D4 -2 -8 0 10 -262144
-1 -1 0 1;
#X obj 415 266 hsl 128 15 0 1023 0 0 D3 empty D3 -2 -8 0 10 -262144
-1 -1 2400 1;
#X msg 445 214 0;
#X msg 412 214 \$1;
#X obj 412 187 t f b;
#X obj 533 187 t b f;
#X msg 566 214 \$1;
#X msg 533 214 0;
#X msg 412 134 620;
#X msg 533 145 620;
#X msg 376 134 0;
#X obj 920 266 hsl 128 15 0 1023 0 0 D6 empty D6 -2 -8 0 10 -262144
-1 -1 0 1;
#X obj 766 266 hsl 128 15 0 1023 0 0 D5 empty D5 -2 -8 0 10 -262144
-1 -1 0 1;
#X msg 796 214 0;
#X msg 763 214 \$1;
#X obj 763 187 t f b;
#X obj 884 187 t b f;
#X msg 917 214 \$1;
#X msg 884 214 0;
#X msg 763 134 620;
#X msg 884 145 620;
#X msg 727 134 0;
#X connect 2 0 0 0;
#X connect 3 0 1 0;
#X connect 4 0 3 0;
#X connect 4 1 2 0;
#X connect 5 0 7 0;
#X connect 5 1 6 0;
#X connect 6 0 0 0;
#X connect 7 0 1 0;
#X connect 8 0 4 0;
#X connect 9 0 5 0;
#X connect 10 0 4 0;
#X connect 13 0 11 0;
#X connect 14 0 12 0;
#X connect 15 0 14 0;
#X connect 15 1 13 0;
#X connect 16 0 18 0;
#X connect 16 1 17 0;
#X connect 17 0 11 0;
#X connect 18 0 12 0;
#X connect 19 0 15 0;
#X connect 20 0 16 0;
#X connect 21 0 15 0;
#X connect 24 0 22 0;
#X connect 25 0 23 0;
#X connect 26 0 25 0;
#X connect 26 1 24 0;
#X connect 27 0 29 0;
#X connect 27 1 28 0;
#X connect 28 0 22 0;
#X connect 29 0 23 0;
#X connect 30 0 26 0;
#X connect 31 0 27 0;
#X connect 32 0 26 0;
#X restore 809 311 pd control;
#X msg 386 233 connect 192.168.0.127 8266;
#X obj 162 263 print;
#X connect 0 0 44 0;
#X connect 2 0 4 0;
#X connect 2 1 43 0;
#X connect 2 1 47 0;
#X connect 2 2 3 0;
#X connect 3 0 43 0;
#X connect 4 0 43 0;
#X connect 6 0 2 0;
#X connect 7 0 6 0;
#X connect 10 0 20 0;
#X connect 11 0 21 0;
#X connect 13 0 22 0;
#X connect 15 0 23 0;
#X connect 18 0 24 0;
#X connect 19 0 25 0;
#X connect 20 0 2 0;
#X connect 21 0 2 0;
#X connect 22 0 2 0;
#X connect 23 0 2 0;
#X connect 24 0 2 0;
#X connect 25 0 2 0;
#X connect 28 0 2 0;
#X connect 29 0 28 0;
#X connect 31 0 32 0;
#X connect 32 0 2 0;
#X connect 34 0 15 0;
#X connect 35 0 13 0;
#X connect 36 0 10 0;
#X connect 37 0 29 0;
#X connect 38 0 11 0;
#X connect 39 0 7 0;
#X connect 40 0 18 0;
#X connect 41 0 19 0;
#X connect 42 0 31 0;
#X connect 43 0 44 0;
#X connect 43 0 47 0;
#X connect 43 1 1 0;
#X connect 46 0 44 0;
