#N canvas 353 155 833 544 10;
#X msg 285 342 disconnect;
#X floatatom 332 244 5 0 0 0 - - -;
#X obj 245 223 mrpeach/packOSC;
#X obj 43 454 tgl 15 0 empty empty empty 17 7 0 10 -262144 -1 -1 1
1;
#X obj 43 423 mrpeach/udpsend 0;
#X obj 246 250 print;
#X obj 46 41 bng 15 250 50 0 empty empty empty 17 7 0 10 -262144 -1
-1;
#X msg 46 110 sendtyped /neighbor f \$1;
#X obj 327 -21 float 10;
#X obj 46 83 float 0;
#X text 306 406 comment;
#X obj 247 454 tgl 15 0 empty empty empty 17 7 0 10 -262144 -1 -1 0
1;
#X obj 247 423 mrpeach/udpsend 0;
#X obj 454 459 tgl 15 0 empty empty empty 17 7 0 10 -262144 -1 -1 0
1;
#X obj 454 428 mrpeach/udpsend 0;
#X obj 266 319 bng 15 250 50 0 empty empty empty 17 7 0 10 -262144
-1 -1;
#X obj 473 323 bng 15 250 50 0 empty empty empty 17 7 0 10 -262144
-1 -1;
#X obj 56 357 bng 15 250 50 0 empty empty empty 17 7 0 10 -262144 -1
-1;
#X msg 54 394 connect 192.168.0.11 8266;
#X msg 264 372 connect 192.168.0.12 8266;
#X msg 471 377 connect 192.168.0.13 8266;
#X obj 329 147 float 0.01;
#X obj 327 62 float 2;
#X msg 327 -1 sendtyped /set_param/K f \$1;
#X msg 329 167 sendtyped /set_param/DT f \$1;
#X msg 328 82 sendtyped /set_param/W f \$1;
#X obj 43 -20 float 2;
#X msg 43 0 sendtyped /set_val f \$1;
#X floatatom 46 62 5 0 0 0 - - -;
#X text 311 54;
#X text 625 52;
#X obj 327 -61 bng 15 250 50 0 empty empty empty 17 7 0 10 -262144
-1 -1;
#X floatatom 327 -40 5 0 0 0 - - -;
#X obj 329 106 bng 15 250 50 0 empty empty empty 17 7 0 10 -262144
-1 -1;
#X floatatom 329 127 5 0 0 0 - - -;
#X obj 327 21 bng 15 250 50 0 empty empty empty 17 7 0 10 -262144 -1
-1;
#X floatatom 327 42 5 0 0 0 - - -;
#X obj 42 -61 bng 15 250 50 0 empty empty empty 17 7 0 10 -262144 -1
-1;
#X floatatom 42 -40 5 0 0 0 - - -;
#X text 26 -28;
#X text 437 167;
#X obj 568 -13 float 2;
#X obj 568 -54 bng 15 250 50 0 empty empty empty 17 7 0 10 -262144
-1 -1;
#X floatatom 568 -33 5 0 0 0 - - -;
#X text 552 -21;
#X msg 569 7 sendtyped /set_param/DEBUG f \$1;
#X msg 570 92 sendtyped /set_param/MONITOR f \$1;
#X obj 570 65 tgl 15 0 empty empty empty 17 7 0 10 -262144 -1 -1 0
1;
#X connect 0 0 4 0;
#X connect 0 0 12 0;
#X connect 0 0 14 0;
#X connect 2 0 4 0;
#X connect 2 0 12 0;
#X connect 2 0 14 0;
#X connect 2 1 1 0;
#X connect 4 0 3 0;
#X connect 6 0 28 0;
#X connect 7 0 2 0;
#X connect 7 0 5 0;
#X connect 8 0 23 0;
#X connect 9 0 7 0;
#X connect 12 0 11 0;
#X connect 14 0 13 0;
#X connect 15 0 19 0;
#X connect 16 0 20 0;
#X connect 17 0 18 0;
#X connect 18 0 4 0;
#X connect 19 0 12 0;
#X connect 20 0 14 0;
#X connect 21 0 24 0;
#X connect 22 0 25 0;
#X connect 23 0 2 0;
#X connect 23 0 5 0;
#X connect 24 0 2 0;
#X connect 25 0 2 0;
#X connect 26 0 27 0;
#X connect 27 0 4 0;
#X connect 28 0 9 0;
#X connect 31 0 32 0;
#X connect 32 0 8 0;
#X connect 33 0 34 0;
#X connect 34 0 21 0;
#X connect 35 0 36 0;
#X connect 36 0 22 0;
#X connect 37 0 38 0;
#X connect 38 0 26 0;
#X connect 41 0 45 0;
#X connect 42 0 43 0;
#X connect 43 0 41 0;
#X connect 45 0 2 0;
#X connect 46 0 2 0;
#X connect 47 0 46 0;
