#N canvas 303 23 1098 754 10;
#X obj 369 415 mrpeach/packOSC;
#X obj 369 461 tgl 15 0 empty empty empty 17 7 0 10 -262144 -1 -1 0
1;
#X obj 369 440 mrpeach/udpsend 0;
#X obj 325 415 print;
#X obj 244 -88 bng 15 250 50 0 empty empty empty 17 7 0 10 -262144
-1 -1;
#X floatatom 244 -68 5 0 0 0 - - -;
#X obj 244 -3 bng 15 250 50 0 empty empty empty 17 7 0 10 -262144 -1
-1;
#X floatatom 244 18 5 0 0 0 - - -;
#X obj 369 391 r osc;
#X msg 498 372 disconnect;
#X obj 244 60 s osc;
#X obj 244 -24 s osc;
#X obj 447 112 s osc;
#X obj 246 204 s osc;
#X obj 13 -84 bng 15 250 50 0 empty empty empty 17 7 0 10 -262144 -1
-1;
#X floatatom 13 -63 5 0 0 0 - - -;
#X obj 13 -20 s osc;
#X obj 245 160 tgl 15 0 empty empty empty 17 7 0 10 -262144 -1 -1 1
1;
#X obj 245 132 s osc;
#X obj 245 83 tgl 15 0 empty empty empty 17 7 0 10 -262144 -1 -1 1
1;
#X obj 11 578 s osc;
#X obj 446 63 bng 15 250 50 0 empty empty empty 17 7 0 10 -262144 -1
-1;
#X obj 634 419 mrpeach/packOSC;
#X obj 634 465 tgl 15 0 empty empty empty 17 7 0 10 -262144 -1 -1 0
1;
#X obj 634 444 mrpeach/udpsend 0;
#X obj 590 419 print;
#X obj 636 395 r osc;
#X msg 765 376 disconnect;
#X obj 372 562 mrpeach/packOSC;
#X obj 372 609 tgl 15 0 empty empty empty 17 7 0 10 -262144 -1 -1 0
1;
#X obj 372 587 mrpeach/udpsend 0;
#X obj 328 562 print;
#X obj 372 536 r osc;
#X msg 501 519 disconnect;
#X obj 638 275 mrpeach/packOSC;
#X obj 638 331 tgl 15 0 empty empty empty 17 7 0 10 -262144 -1 -1 0
1;
#X obj 638 300 mrpeach/udpsend 0;
#X obj 594 275 print;
#X msg 679 251 connect 192.168.0.11 8266;
#X obj 638 251 r osc;
#X msg 768 231 disconnect;
#X msg 408 391 connect 192.168.0.12 8266;
#X msg 411 538 connect 192.168.0.14 8266;
#X obj 633 568 mrpeach/packOSC;
#X obj 633 624 tgl 15 0 empty empty empty 17 7 0 10 -262144 -1 -1 0
1;
#X obj 633 593 mrpeach/udpsend 0;
#X obj 589 568 print;
#X obj 633 545 r osc;
#X msg 763 526 disconnect;
#X msg 673 546 connect 192.168.0.15 8266;
#X obj 375 268 mrpeach/packOSC;
#X obj 375 324 tgl 15 0 empty empty empty 17 7 0 10 -262144 -1 -1 1
1;
#X obj 375 293 mrpeach/udpsend 0;
#X obj 331 268 print;
#X obj 375 248 r osc;
#X msg 504 228 disconnect;
#X msg 414 247 connect 192.168.0.10 8266;
#X msg 675 396 connect 192.168.0.13 8266;
#X obj 767 211 r d;
#X obj 712 147 s d;
#X obj 504 206 r d;
#X obj 498 349 r d;
#X obj 765 353 r d;
#X obj 501 497 r d;
#X obj 763 503 r d;
#X obj 712 127 bng 15 250 50 0 empty empty empty 17 7 0 10 -262144
-1 -1;
#X obj 740 126 bng 15 250 50 0 empty empty empty 17 7 0 10 -262144
-1 -1;
#X obj 740 147 s c;
#X obj 414 226 r c;
#X obj 679 230 r c;
#X obj 408 369 r c;
#X obj 675 375 r c;
#X obj 673 526 r c;
#X obj 411 518 r c;
#X msg 50 433 sendtyped /neighbor_weight if 10 \$1;
#X obj 16 433 tgl 15 0 empty empty empty 17 7 0 10 -262144 -1 -1 0
1;
#X obj 15 456 tgl 15 0 empty empty empty 17 7 0 10 -262144 -1 -1 0
1;
#X obj 15 479 tgl 15 0 empty empty empty 17 7 0 10 -262144 -1 -1 0
1;
#X obj 14 503 tgl 15 0 empty empty empty 17 7 0 10 -262144 -1 -1 0
1;
#X obj 13 527 tgl 15 0 empty empty empty 17 7 0 10 -262144 -1 -1 0
1;
#X obj 12 550 tgl 15 0 empty empty empty 17 7 0 10 -262144 -1 -1 0
1;
#X msg 49 456 sendtyped /neighbor_weight if 11 \$1;
#X msg 49 479 sendtyped /neighbor_weight if 12 \$1;
#X msg 50 503 sendtyped /neighbor_weight if 13 \$1;
#X msg 49 527 sendtyped /neighbor_weight if 14 \$1;
#X msg 48 550 sendtyped /neighbor_weight if 15 \$1;
#X obj -2 286 bng 15 250 50 0 empty empty empty 17 7 0 10 -262144 -1
-1;
#X floatatom 19 286 5 0 0 0 - - -;
#X floatatom 59 287 5 0 0 0 - - -;
#X obj -2 349 s osc;
#X msg 245 109 sendtyped /set/DEBUG i \$1;
#X msg 245 181 sendtyped /set/MONITOR i \$1;
#X msg 244 -45 sendtyped /set/C f \$1;
#X msg 244 40 sendtyped /set/MU f \$1;
#X text 228 30;
#X text 402 130;
#X obj 448 185 s osc;
#X obj 447 136 bng 15 250 50 0 empty empty empty 17 7 0 10 -262144
-1 -1;
#X obj 446 -32 s osc;
#X obj 445 -81 bng 15 250 50 0 empty empty empty 17 7 0 10 -262144
-1 -1;
#X msg 446 -55 sendtyped /show/all i 0;
#X obj 447 41 s osc;
#X obj 446 -8 bng 15 250 50 0 empty empty empty 17 7 0 10 -262144 -1
-1;
#X msg 447 18 sendtyped /show/this i 0;
#X msg 447 89 sendtyped /show/neighs i 0;
#X msg 448 162 sendtyped /show/params i 0;
#X msg 13 -41 sendtyped /value f \$1;
#X obj -2 307 pack i f f;
#X floatatom 100 287 5 0 0 0 - - -;
#X msg -2 328 sendtyped /set/values iff \$1 \$2 \$3;
#X obj -2 200 bng 15 250 50 0 empty empty empty 17 7 0 10 -262144 -1
-1;
#X floatatom 19 200 5 0 0 0 - - -;
#X floatatom 59 201 5 0 0 0 - - -;
#X obj -2 263 s osc;
#X obj -2 221 pack i f f;
#X floatatom 100 201 5 0 0 0 - - -;
#X msg -2 242 sendtyped /set/values iff \$1 \$2 \$3;
#X obj 630 -84 bng 15 250 50 0 empty empty empty 17 7 0 10 -262144
-1 -1;
#X floatatom 630 -67 5 0 0 0 - - -;
#X obj 630 -25 s osc;
#X obj 629 0 bng 15 250 50 0 empty empty empty 17 7 0 10 -262144 -1
-1;
#X floatatom 629 18 5 0 0 0 - - -;
#X obj 629 59 s osc;
#X msg 630 -46 sendtyped /set/oscFreq f \$1;
#X msg 629 38 sendtyped /set/oscAmp f \$1;
#X obj -3 100 bng 15 250 50 0 empty empty empty 17 7 0 10 -262144 -1
-1;
#X floatatom 18 100 5 0 0 0 - - -;
#X floatatom 58 101 5 0 0 0 - - -;
#X obj -3 163 s osc;
#X obj -3 14 bng 15 250 50 0 empty empty empty 17 7 0 10 -262144 -1
-1;
#X floatatom 18 14 5 0 0 0 - - -;
#X floatatom 58 15 5 0 0 0 - - -;
#X obj -3 77 s osc;
#X obj -3 35 pack i f f;
#X floatatom 99 15 5 0 0 0 - - -;
#X msg -3 56 sendtyped /set/values iff \$1 \$2 \$3;
#X obj -3 121 pack i f;
#X msg -3 142 sendtyped /set/weights if \$1 \$2;
#X connect 0 0 2 0;
#X connect 2 0 1 0;
#X connect 4 0 5 0;
#X connect 5 0 92 0;
#X connect 6 0 7 0;
#X connect 7 0 93 0;
#X connect 8 0 3 0;
#X connect 8 0 0 0;
#X connect 9 0 2 0;
#X connect 14 0 15 0;
#X connect 15 0 106 0;
#X connect 17 0 91 0;
#X connect 19 0 90 0;
#X connect 21 0 104 0;
#X connect 22 0 24 0;
#X connect 24 0 23 0;
#X connect 26 0 25 0;
#X connect 26 0 22 0;
#X connect 27 0 24 0;
#X connect 28 0 30 0;
#X connect 30 0 29 0;
#X connect 32 0 31 0;
#X connect 32 0 28 0;
#X connect 33 0 30 0;
#X connect 34 0 36 0;
#X connect 36 0 35 0;
#X connect 38 0 36 0;
#X connect 39 0 37 0;
#X connect 39 0 34 0;
#X connect 40 0 36 0;
#X connect 41 0 2 0;
#X connect 42 0 30 0;
#X connect 43 0 45 0;
#X connect 45 0 44 0;
#X connect 47 0 46 0;
#X connect 47 0 43 0;
#X connect 48 0 45 0;
#X connect 49 0 45 0;
#X connect 50 0 52 0;
#X connect 52 0 51 0;
#X connect 54 0 53 0;
#X connect 54 0 50 0;
#X connect 55 0 52 0;
#X connect 56 0 52 0;
#X connect 57 0 24 0;
#X connect 58 0 40 0;
#X connect 60 0 55 0;
#X connect 61 0 9 0;
#X connect 62 0 27 0;
#X connect 63 0 33 0;
#X connect 64 0 48 0;
#X connect 65 0 59 0;
#X connect 66 0 67 0;
#X connect 68 0 56 0;
#X connect 69 0 38 0;
#X connect 70 0 41 0;
#X connect 71 0 57 0;
#X connect 72 0 49 0;
#X connect 73 0 42 0;
#X connect 74 0 20 0;
#X connect 75 0 74 0;
#X connect 76 0 81 0;
#X connect 77 0 82 0;
#X connect 78 0 83 0;
#X connect 79 0 84 0;
#X connect 80 0 85 0;
#X connect 81 0 20 0;
#X connect 82 0 20 0;
#X connect 83 0 20 0;
#X connect 84 0 20 0;
#X connect 85 0 20 0;
#X connect 86 0 107 0;
#X connect 87 0 107 0;
#X connect 88 0 107 1;
#X connect 90 0 18 0;
#X connect 91 0 13 0;
#X connect 92 0 11 0;
#X connect 93 0 10 0;
#X connect 97 0 105 0;
#X connect 99 0 100 0;
#X connect 100 0 98 0;
#X connect 102 0 103 0;
#X connect 103 0 101 0;
#X connect 104 0 12 0;
#X connect 105 0 96 0;
#X connect 106 0 16 0;
#X connect 107 0 109 0;
#X connect 108 0 107 2;
#X connect 109 0 89 0;
#X connect 110 0 114 0;
#X connect 111 0 114 0;
#X connect 112 0 114 1;
#X connect 114 0 116 0;
#X connect 115 0 114 2;
#X connect 116 0 113 0;
#X connect 117 0 118 0;
#X connect 118 0 123 0;
#X connect 120 0 121 0;
#X connect 121 0 124 0;
#X connect 123 0 119 0;
#X connect 124 0 122 0;
#X connect 125 0 136 0;
#X connect 126 0 136 0;
#X connect 127 0 136 1;
#X connect 129 0 133 0;
#X connect 130 0 133 0;
#X connect 131 0 133 1;
#X connect 133 0 135 0;
#X connect 134 0 133 2;
#X connect 135 0 132 0;
#X connect 136 0 137 0;
#X connect 137 0 128 0;
